<svg height="96" width="96" xmlns="http://www.w3.org/2000/svg" xmlns:xlink="http://www.w3.org/1999/xlink"><linearGradient id="a"><stop offset="0" stop-color="#fffac8"/><stop offset="1" stop-color="#feff67" stop-opacity="0"/></linearGradient><linearGradient id="b" gradientUnits="userSpaceOnUse" x1="36.357143" x2="36.357143" xlink:href="#a" y1="6" y2="63.893143"/><filter id="c" color-interpolation-filters="sRGB" height="1.384" width="1.384" x="-.192" y="-.192"><feGaussianBlur stdDeviation="5.28"/></filter><linearGradient id="d" gradientUnits="userSpaceOnUse" x1="48" x2="48" xlink:href="#a" y1="20.220806" y2="138.66119"/><radialGradient id="e" cx="48" cy="90.171875" gradientTransform="matrix(1.1573129 0 0 .99590774 -7.551021 .197132)" gradientUnits="userSpaceOnUse" r="42" xlink:href="#a"/><clipPath id="f"><rect height="84" rx="6" width="84" x="6" y="6"/></clipPath><linearGradient id="g" gradientUnits="userSpaceOnUse" x1="48" x2="48" y1="90" y2="5.987717"><stop offset="0" stop-color="#da4714"/><stop offset="1" stop-color="#ee743e"/></linearGradient><linearGradient id="h" gradientTransform="matrix(1.0058652 0 0 .994169 100 0)" gradientUnits="userSpaceOnUse" x1="45.447727" x2="45.447727" y1="92.539597" y2="7.01654"><stop offset="0"/><stop offset="1" stop-opacity=".588235"/></linearGradient><linearGradient id="i" gradientTransform="matrix(1.0238095 0 0 1.0119048 -1.142857 -98.071429)" gradientUnits="userSpaceOnUse" x1="32.251034" x2="32.251034" xlink:href="#h" y1="6.131708" y2="90.238609"/><linearGradient id="j" gradientTransform="translate(0 -97)" gradientUnits="userSpaceOnUse" x1="32.251034" x2="32.251034" xlink:href="#h" y1="6.131708" y2="90.238609"/><g fill="url(#i)"><path d="m12-95.03125c-5.5110903 0-10.03125 4.52016-10.03125 10.03125v71c0 5.5110902 4.5201598 10.03125 10.03125 10.03125h72c5.51109 0 10.03125-4.5201597 10.03125-10.03125v-71c0-5.51109-4.52016-10.03125-10.03125-10.03125z" opacity=".08" transform="scale(1 -1)"/><path d="m12-94.03125c-4.971633 0-9.03125 4.059617-9.03125 9.03125v71c0 4.9716329 4.0596171 9.03125 9.03125 9.03125h72c4.971633 0 9.03125-4.059617 9.03125-9.03125v-71c0-4.971633-4.059617-9.03125-9.03125-9.03125z" opacity=".1" transform="scale(1 -1)"/><path d="m12-93c-4.4091333 0-8 3.590867-8 8v71c0 4.4091333 3.5908667 8 8 8h72c4.409133 0 8-3.5908667 8-8v-71c0-4.409133-3.590867-8-8-8z" opacity=".2" transform="scale(1 -1)"/><rect height="85" opacity=".3" rx="7" transform="scale(1 -1)" width="86" x="5" y="-92"/></g><rect fill="url(#j)" height="84" opacity=".45" rx="6" transform="scale(1 -1)" width="84" x="6" y="-91"/><rect fill="url(#g)" height="84" rx="6" width="84" x="6" y="6"/><path d="m12 6c-3.324 0-6 2.676-6 6v2 68 2c0 .334721.04135.6507.09375.96875.0487.295596.09704.596915.1875.875.00988.03038.020892.0636.03125.09375.098865.287771.2348802.547452.375.8125.1445918.273507.3156161.535615.5.78125s.3737765.473472.59375.6875c.439947.428056.94291.814526 1.5 1.09375.278545.139612.5734731.246947.875.34375-.2562018-.100222-.4867109-.236272-.71875-.375-.00741-.0044-.023866.0045-.03125 0-.031933-.0193-.062293-.04251-.09375-.0625-.120395-.0767-.2310226-.163513-.34375-.25-.1061728-.0808-.2132809-.161112-.3125-.25-.1779299-.161433-.3474596-.345388-.5-.53125-.1075789-.130255-.2183939-.265285-.3125-.40625-.025089-.03838-.038446-.08587-.0625-.125-.064763-.103032-.1302275-.204517-.1875-.3125-.1010083-.194706-.2056748-.415701-.28125-.625-.00796-.02181-.023589-.04055-.03125-.0625-.0318251-.09195-.0358045-.186831-.0625-.28125-.0303323-.106618-.0703894-.203031-.09375-.3125-.0728786-.341512-.125-.698205-.125-1.0625v-2-68-2c0-2.781848 2.2181517-5 5-5h2 68 2c2.781848 0 5 2.218152 5 5v2 68 2c0 .364295-.05212.720988-.125 1.0625-.04415.206893-.08838.397658-.15625.59375-.0077.02195-.0233.04069-.03125.0625-.06274.173739-.138383.367449-.21875.53125-.04158.0828-.07904.169954-.125.25-.0546.09721-.126774.18835-.1875.28125-.09411.140965-.204921.275995-.3125.40625-.143174.17445-.303141.346998-.46875.5-.01117.0102-.01998.02115-.03125.03125-.138386.125556-.285091.234436-.4375.34375-.102571.07315-.204318.153364-.3125.21875-.0074.0045-.02384-.0044-.03125 0-.232039.138728-.462548.274778-.71875.375.301527-.0968.596455-.204138.875-.34375.55709-.279224 1.060053-.665694 1.5-1.09375.219973-.214028.409366-.441865.59375-.6875s.355408-.507743.5-.78125c.14012-.265048.276135-.524729.375-.8125.01041-.03078.02133-.06274.03125-.09375.09046-.278085.1388-.579404.1875-.875.0524-.31805.09375-.634029.09375-.96875v-2-68-2c0-3.324-2.676-6-6-6z" fill="url(#b)" opacity=".35"/><path d="m12 90c-3.324 0-6-2.676-6-6v-2-68-2c0-.334721.04135-.6507.09375-.96875.0487-.295596.09704-.596915.1875-.875.00988-.03038.020892-.0636.03125-.09375.098865-.287771.2348802-.547452.375-.8125.1445918-.273507.3156161-.535615.5-.78125s.3737765-.473472.59375-.6875c.439947-.428056.94291-.814526 1.5-1.09375.278545-.139612.5734731-.246947.875-.34375-.2562018.100222-.4867109.236272-.71875.375-.00741.0044-.023866-.0045-.03125 0-.031933.0193-.062293.04251-.09375.0625-.120395.0767-.2310226.163513-.34375.25-.1061728.0808-.2132809.161112-.3125.25-.1779299.161433-.3474596.345388-.5.53125-.1075789.130255-.2183939.265285-.3125.40625-.025089.03838-.038446.08587-.0625.125-.064763.103032-.1302275.204517-.1875.3125-.1010083.194706-.2056748.415701-.28125.625-.00796.02181-.023589.04055-.03125.0625-.0318251.09195-.0358045.186831-.0625.28125-.0303323.106618-.0703894.203031-.09375.3125-.0728786.341512-.125.698205-.125 1.0625v2 68 2c0 2.781848 2.2181517 5 5 5h2 68 2c2.781848 0 5-2.218152 5-5v-2-68-2c0-.364295-.05212-.720988-.125-1.0625-.04415-.206893-.08838-.397658-.15625-.59375-.0077-.02195-.0233-.04069-.03125-.0625-.06274-.173739-.138383-.367449-.21875-.53125-.04158-.0828-.07904-.169954-.125-.25-.0546-.09721-.126774-.18835-.1875-.28125-.09411-.140965-.204921-.275995-.3125-.40625-.143174-.17445-.303141-.346998-.46875-.5-.01117-.0102-.01998-.02115-.03125-.03125-.138386-.125556-.285091-.234436-.4375-.34375-.102571-.07315-.204318-.153364-.3125-.21875-.0074-.0045-.02384.0044-.03125 0-.232039-.138728-.462548-.274778-.71875-.375.301527.0968.596455.204138.875.34375.55709.279224 1.060053.665694 1.5 1.09375.219973.214028.409366.441865.59375.6875s.355408.507743.5.78125c.14012.265048.276135.524729.375.8125.01041.03078.02133.06274.03125.09375.09046.278085.1388.579404.1875.875.0524.31805.09375.634029.09375.96875v2 68 2c0 3.324-2.676 6-6 6z" fill="url(#e)" opacity=".2"/><circle cx="52.545834" cy="44.317074" fill="#6c0000" fill-opacity=".235294" r="35"/><g transform="matrix(.8771992 0 0 .8771992 1.627265 9.425979)"><path d="m79.279361 30.288184c-1.207553 1.05501-2.028695 1.250669-4.957627 1.25067-5.857865 0-10.25067-4.214839-10.25067-10.072704.000001-5.857864 4.748738-10.606602 10.606602-10.606601 2.928932 0 5.580582 1.187185 7.499999 3.106602l-9.862524 8.161016z" fill="#999"/><path d="m66.40678 27.661017c1.408335 1.066772 1.879703 3.102821 1.322034 6.20339-2.028483 9.585911-9.417393 18.444984-19.423729 26.949152-11.798552 10.524258-18.087824 14.234405-24.915254 18.61017l1.830508 8.644068-8.847458-9.355933" fill="#999"/><path d="m71.440678 22.271186 7.169492 7.881356c6.485557-4.323227 6.971626-9.846353 1.932203-16.474576" fill="#666"/><path d="m66.40678 27.661017c1.760241 2.595801 1.267975 6.427122-1.400895 10.308287l-19.775021 19.559293-8.916736 1.006728" fill="#666"/><path d="m66.40678 27.661017c-3.289749-1.811341-8.340893-1.200764-15.966102 2.949152-6.629636 5.381146-10.730551 10.973019-15.915254 16.474577l6.508474 5.745763" fill="#ff931e"/><path d="m24.713779 89.85327c-.249771 0-1.99777-1.63304-4.916901-4.59354-2.491142-2.52645-4.531018-4.66001-4.533055-4.74124-.588469-.915884-.34555-1.536024-.0037-2.037 0-.19557 1.622507-2.02664 3.644201-4.11264 4.61189-4.31099 9.372842-9.42997 13.244167-13.43021 2.8528-2.94668 5.148404-5.39612 5.101341-5.44318-.04706-.0471-2.320661.40149-5.052441.99678-2.902743.63254-5.30408 1.05785-5.778285 1.02339-.77542-.0563-.813742-.089-.863954-.7359-.04797-.61796.177574-.9466 2.588318-3.77155 1.452476-1.70203 4.092967-4.83531 5.867761-6.96285 4.129666-4.95045 7.197877-8.27051 10.130594-10.96216 5.133683-4.71171 9.487357-7.72825 12.605289-8.73386 1.467475-.4733 4.234575-.90241 5.819135-.90241h1.41668l-.30452-.82201c-.41227-1.1129-.57007-4.71759-.26768-6.11488.40224-1.85863 1.50601-3.8511 2.90731-5.2481 1.62944-1.62444 3.3843-2.36831 5.2153-2.76423 3.217486-.695738 5.974006-.008 7.747966.7304 2.18133.90745 3.72871 2.87732 4.78598 4.43518 1.97933 2.91652 1.5728 8.46044.0951 10.84741-1.29999 2.09996-3.2496 4.02505-5.7822 4.85478-1.56412.51244-1.94495.56024-4.41939.55467-2.488036-.006-2.805866-.0477-3.916596-.51833l-1.20883-.51224v.92818c0 .51049-.13473 1.70075-.29939 2.64502-1.39078 7.9753-8.06113 17.18714-19.525397 26.96481-1.914784 1.63309-4.438818 3.80367-5.608964 4.82352-3.731432 3.25215-5.53794 4.73003-8.510152 6.96205-1.595653 1.19828-2.988839 2.28695-3.095968 2.41927-.286366.35372-3.621737 2.51578-5.463775 3.54175-1.138406.63406-1.5712.97593-1.507412 1.19072.04921.16572.315583 1.30222.591937 2.52555.276353 1.22334.715342 3.11515.97553 4.20403.260186 1.08887.472389 2.1333.471559 2.32095-.63734.81148-1.387058.608991-2.149553.43787zm-1.612227-7.03781c-.391208-1.64893-.683652-3.281-.649876-3.62682.05696-.58321.221387-.71808 2.269281-1.86136 5.277241-2.94615 9.900695-6.40153 18.390568-13.74435 4.211345-3.64236 3.843378-3.21372 3.277863-3.81829-.260361-.27834-.61464-.58226-.78729-.67538-.319411-.17228-9.598169 1.38698-10.088522 1.69534-.414766.26082-18.12592 18.58359-18.12592 18.75186 0 .20658 6.243179 6.45906 6.346392 6.35584.04334-.0433-.241288-1.42791-.632496-3.07684zm28.24099-26.40114c3.926385-3.55182 7.957952-8.14167 10.555152-12.01684 1.15548-1.72405 2.80331-4.63805 2.62274-4.63805-.0445 0-3.97645 3.97974-8.737605 8.84387l-8.656638 8.84387.737155.63722c.405435.35047.806209.61372.890607.58499.0844-.0287 1.249263-1.04351 2.588589-2.25506zm-10.493672 1.25604c1.361776-.25257 2.512721-.49599 2.557659-.54093.04494-.0449-.418694-.57688-1.030293-1.1821l-1.111999-1.10039-1.634802 1.64334c-.899142.90383-1.549689 1.64243-1.44566 1.64131.104027-.001 1.30332-.20867 2.665095-.46123zm24.283784-21.60338c1.59725-2.08619 2.01633-3.03697 2.02682-4.59832.008-1.24136-.2977-2.24047-.64843-2.11691-.0938.0331-5.48243 5.42512-11.974664 11.98236l-11.804048 11.92227 1.485681 1.41125 1.485681 1.41125 9.152434-9.27185c5.033836-5.09952 9.658276-9.93254 10.276526-10.74005zm-30.773047 17.88468c2.366886-.50332 4.303429-.97759 4.303429-1.05394 0-.27141-4.119473-4.06702-4.247705-3.91376-.07178.0858-1.119924 1.33095-2.329203 2.76704-1.209281 1.43609-2.334797 2.77495-2.501146 2.97525-.280603.33787-.274508.3561.08437.25235.212753-.0615 2.323368-.52363 4.690255-1.02694zm20.785073-16.37246c5.326674-5.40101 9.621534-9.88334 9.544134-9.96074s-1.11263-.13827-2.30051-.13526c-3.51718.009-6.002093.90194-9.789815 3.51825-4.752065 3.28241-9.899069 8.14898-15.109661 14.28641l-1.430415 1.68485 2.511139 2.38029 2.511141 2.3803 2.189565-2.16704c1.20426-1.19187 6.547752-6.58605 11.874422-11.98706zm20.50399-7.58203c.50281-.0683.95572-.19131 1.00646-.2734.0507-.0821-1.29537-1.62195-2.99136-3.4219-4.196706-4.45396-4.301176-3.68625 1.18217-8.6872 2.33217-2.12699 4.24031-3.9201 4.24031-3.98467-2.669725-2.12441-5.679736-2.107603-8.316736-.83325-3.68207 1.75322-5.7708 5.07544-5.57202 8.86256.0701 1.33612.19989 1.8419.79294 3.09071.94099 1.98144 2.50187 3.55576 4.43617 4.47436 1.29464.61482 3.292706 1.08803 4.017746.95155.15957-.03.70151-.11048 1.20432-.17876zm4.25625-1.77698c.99159-.68718 2.34852-2.52465 2.8457-3.85347 1.14275-3.05428.7886-5.67609-1.14669-8.48893l-.60393-.87779-3.90642 3.60137c-2.14852 1.98074-3.906406 3.67459-3.906406 3.76409 0 .18617 5.691186 6.36945 5.862546 6.36945.0618 0 .44668-.23163.8552-.51472zm-.0346-3.63111c-.27561-.33209-.19515-1.23143.19412-2.16978.2096-.50526.20768-.79898-.0112-1.71128-.36349-1.51518.0289-2.06601 1.25296-1.7588.92883.23312 1.17268 3.7801.35634 5.18327-.42425.72923-1.36671.96933-1.79224.45659z" fill="#fefefe" stroke-width=".193413"/></g><rect height="66" rx="12" style="opacity:.1;stroke:#fefefe;stroke-width:.5;stroke-linecap:round;clip-path:url(#f);fill:url(#d);filter:url(#c)" width="66" x="15" y="15"/></svg>